# xmcd CD database file
#
# Track frame offsets:
#	150
#	22405
#	33290
#	58817
#	75640
#	103985
#	125757
#	145922
#	169860
#	187397
#
# Disc length: 2759 seconds
#
# Revision: 0
# Processed by: cddbd v1.5.1PL0 Copyright (c) Steve Scherf et al.
# Submitted via: cdripper 1.0.10
#
DISCID=9a0ac50a
DTITLE=Chris Pati and Blufire - Black Chair
DYEAR=1998
DGENRE=Blues
TTITLE0=Lost in the Middle
TTITLE1=Devil in Me
TTITLE2=Black Chair
TTITLE3=Time at Hand
TTITLE4=Standing
TTITLE5=Thanks for Giving Me the Blues
TTITLE6=Talking in My Ear
TTITLE7=This Ol' World
TTITLE8=Money and Love
TTITLE9=Blue Healer
EXTD=YEAR: 1998
EXTT0=
EXTT1=
EXTT2=
EXTT3=
EXTT4=
EXTT5=
EXTT6=
EXTT7=
EXTT8=
EXTT9=
PLAYORDER=
